<svg xmlns="http://www.w3.org/2000/svg" width="32" height="32" viewBox="0 0 32 32">
  <g id="그룹_916" data-name="그룹 916" transform="translate(-993 -867)">
    <path id="패스_165" data-name="패스 165" d="M-5124.869,2362.193h-3v-3.6a6.007,6.007,0,0,0-6-6,6.007,6.007,0,0,0-6,6v3.6h-3a.6.6,0,0,0-.6.6v4.2a9.6,9.6,0,0,0,9.6,9.6,9.6,9.6,0,0,0,9.6-9.6v-4.2a.6.6,0,0,0-.6-.6m-9,7.8a1.8,1.8,0,0,1-1.8-1.8,1.8,1.8,0,0,1,1.8-1.8,1.8,1.8,0,0,1,1.8,1.8,1.8,1.8,0,0,1-1.8,1.8m-3.6-7.8v-3.6a3.6,3.6,0,0,1,3.6-3.6,3.6,3.6,0,0,1,3.6,3.6v3.6Z" transform="translate(6142.869 -1481.592)" fill="#767676"/>
    <rect id="사각형_587" data-name="사각형 587" width="32" height="32" transform="translate(993 867)" fill="none" opacity="0.2"/>
  </g>
</svg>
