<svg xmlns="http://www.w3.org/2000/svg" width="32" height="32" viewBox="0 0 32 32">
  <g id="그룹_168094" data-name="그룹 168094" transform="translate(-644.479 -796.25)">
    <g id="그룹_228" data-name="그룹 228" transform="translate(6003 -410.881)">
      <path id="패스_522" data-name="패스 522" d="M-5332.8,1222.488l-9.19,9.19a6,6,0,0,1-8.49,0,6,6,0,0,1,0-8.49l9.19-9.19a4,4,0,0,1,5.66,0,4,4,0,0,1,0,5.66l-9.2,9.19a2,2,0,0,1-2.83,0,2,2,0,0,1,0-2.83l8.49-8.48" fill="none" stroke="#767676" stroke-linecap="round" stroke-linejoin="round" stroke-width="2"/>
    </g>
    <rect id="사각형_376" data-name="사각형 376" width="32" height="32" transform="translate(644.479 796.25)" fill="none" opacity="0.2"/>
  </g>
</svg>
